<svg width="60" height="18" viewBox="0 0 60 18" fill="none" xmlns="http://www.w3.org/2000/svg">
<path d="M20.8392 5.35425H17.7267V17.6369H20.8392V5.35425Z" fill="url(#paint0_linear_1224_1297)"/>
<path d="M19.2837 3.86816C20.3518 3.86816 21.2176 3.00224 21.2176 1.93408C21.2176 0.865917 20.3518 0 19.2837 0C18.2156 0 17.3498 0.865917 17.3498 1.93408C17.3498 3.00224 18.2156 3.86816 19.2837 3.86816Z" fill="url(#paint1_linear_1224_1297)"/>
<path d="M31.5823 8.38058C31.0309 8.3296 30.4578 8.39603 29.9511 8.57522C29.4445 8.75751 28.9842 9.0572 28.6057 9.4712C28.4158 9.67666 28.2443 9.90838 28.1037 10.1633C27.9616 10.4182 27.838 10.69 27.75 10.9789C27.662 11.2678 27.5986 11.569 27.5616 11.878C27.5307 12.1869 27.5276 12.5021 27.5477 12.8188L25.3249 13.1185C25.2507 12.672 25.2121 12.2178 25.2137 11.759C25.2214 11.3002 25.2708 10.8399 25.3635 10.3826C25.4577 9.92537 25.606 9.47429 25.796 9.03712C25.9845 8.59994 26.2316 8.17976 26.5251 7.78892C27.1059 7.00417 27.9029 6.34609 28.805 5.91664C29.256 5.70191 29.7287 5.54434 30.2076 5.4362C30.6864 5.32961 31.1745 5.274 31.6673 5.26782L31.5854 8.37903L31.5823 8.38058Z" fill="url(#paint2_linear_1224_1297)"/>
<path d="M27.5568 5.35425H24.4443V17.6369H27.5568V5.35425Z" fill="url(#paint3_linear_1224_1297)"/>
<path d="M14.1213 16.8181H11.0088V13.7656C11.0088 11.5874 9.23707 9.81556 7.0591 9.81556C4.88113 9.81556 3.1094 11.5874 3.1094 13.7656V16.8181H0V13.7656C0 9.87117 3.1681 6.70435 7.06065 6.70435C10.9532 6.70435 14.1213 9.87271 14.1213 13.7656V16.8181Z" fill="url(#paint4_linear_1224_1297)"/>
<path d="M14.1229 0.522217H11.0104V17.6385H14.1229V0.522217Z" fill="url(#paint5_linear_1224_1297)"/>
<path d="M3.11249 0.522217H0V17.6385H3.11249V0.522217Z" fill="url(#paint6_linear_1224_1297)"/>
<path d="M58.118 6.95944C57.4074 6.24883 56.5702 5.7406 55.6789 5.43318C55.3515 5.32041 55.0178 5.23545 54.678 5.17675C54.0725 5.0717 53.4531 5.05471 52.8429 5.12422C51.4605 5.28334 50.1197 5.8889 49.0585 6.94245L46.3569 9.48981L45.0239 8.23235L43.6568 6.94399C43.0899 6.38014 42.435 5.93524 41.7245 5.62165C40.9182 5.2648 40.0392 5.07788 39.1325 5.07788C38.7525 5.07788 38.3772 5.11032 38.0111 5.1752C37.1399 5.32814 36.3166 5.65718 35.5829 6.14688C35.2323 6.38169 34.9002 6.65202 34.5959 6.95789C34.5572 6.99651 34.5202 7.03668 34.4815 7.07684C34.4785 7.07993 34.4754 7.08302 34.4723 7.08611C33.34 8.28178 32.716 9.84048 32.716 11.4934C32.716 13.1463 33.3833 14.8193 34.5943 16.032C35.8455 17.2833 37.489 17.9089 39.131 17.9089C40.773 17.9089 42.4026 17.2895 43.6522 16.0475L46.3569 13.5001L49.0585 16.0475C51.5624 18.533 55.6202 18.5284 58.118 16.032C59.329 14.8193 59.9963 13.2081 59.9963 11.4934C59.9963 9.77868 59.329 8.16747 58.118 6.95635V6.95944ZM42.798 12.8451L42.2342 13.3781L41.6364 13.9419L41.6055 13.9713C40.6061 14.9707 39.148 15.238 37.9045 14.773C37.7176 14.7019 37.5338 14.6154 37.3577 14.5119C37.1075 14.3652 36.8742 14.1844 36.6595 13.9713C35.9984 13.3101 35.6354 12.4311 35.6354 11.4965C35.637 11.4687 35.637 11.4378 35.6385 11.4054C35.6385 11.3049 35.6462 11.2076 35.6586 11.1103C35.6586 11.1041 35.6601 11.0979 35.6601 11.0918C35.6648 11.0531 35.6694 11.013 35.6771 10.9728C35.6771 10.9635 35.6787 10.9543 35.6802 10.9465C35.793 10.222 36.1328 9.55469 36.6611 9.02483C37.3222 8.36365 38.1996 8.00063 39.1341 8.00063C40.0686 8.00063 40.946 8.36365 41.6071 9.02483L44.0569 11.3327L44.2299 11.4965L42.7995 12.8451H42.798ZM56.0527 13.9697C54.6904 15.3338 52.4691 15.3338 51.1067 13.9697L48.4839 11.4949L51.0774 9.05263L51.1083 9.02328C52.4707 7.65923 54.6919 7.65923 56.0543 9.02328C56.7154 9.68445 57.0784 10.5619 57.0784 11.4949C57.0784 12.428 56.7154 13.3085 56.0543 13.9697H56.0527Z" fill="url(#paint7_linear_1224_1297)"/>
<path d="M46.3584 9.49115L44.2299 11.4963L41.607 9.02462C40.9459 8.36345 40.0685 8.00042 39.134 8.00042C38.1995 8.00042 37.3221 8.36345 36.6626 9.02462C36.0988 9.58847 35.7512 10.3114 35.6616 11.0916C35.6616 11.0761 35.6663 11.0591 35.6663 11.0406C35.8068 9.77385 36.4092 8.63533 37.0425 7.94945C38.6057 6.25481 41.5236 6.04781 43.2289 6.92988C43.7448 7.19713 44.4198 7.70382 45.0501 8.25377C45.3096 8.48085 46.3599 9.4896 46.3599 9.4896L46.3584 9.49115Z" fill="url(#paint8_linear_1224_1297)"/>
<path d="M46.3584 13.5032L48.4869 11.498L51.1097 13.9697C51.7709 14.6309 52.6482 14.9939 53.5827 14.9939C54.5173 14.9939 55.3946 14.6309 56.0542 13.9697C56.618 13.4059 56.9655 12.6829 57.0551 11.9028C57.0551 11.9182 57.0505 11.9352 57.0505 11.9538C56.9099 13.2205 56.3075 14.359 55.6742 15.0449C54.111 16.7395 51.1931 16.9465 49.4878 16.0645C48.9719 15.7972 48.2969 15.2905 47.6667 14.7406C47.4072 14.5135 46.3568 13.5047 46.3568 13.5047L46.3584 13.5032Z" fill="url(#paint9_linear_1224_1297)"/>
<path d="M43.6569 6.94529C43.09 6.38145 42.4351 5.93655 41.7245 5.62295C40.9197 5.26765 40.0408 5.08228 39.1357 5.08228C38.7526 5.08228 38.3757 5.11626 38.0065 5.18114C37.1369 5.33408 36.3136 5.66466 35.5814 6.15436C35.2323 6.38762 34.9017 6.65796 34.5974 6.96229C34.4461 7.11213 34.2468 7.3284 34.0321 7.60801C34.0321 7.60801 34.0259 7.61573 34.0136 7.63273C34.0028 7.64972 33.9827 7.67598 33.9595 7.70842C33.9286 7.75168 33.89 7.80729 33.8437 7.87526C33.6058 8.2182 33.4034 8.58432 33.2412 8.96588C33.2196 9.01377 33.1995 9.06166 33.181 9.10955C33.1594 9.15898 33.1393 9.20842 33.1192 9.26094C33.1068 9.29338 33.096 9.32582 33.0837 9.35981C33.079 9.37216 33.0744 9.38452 33.0713 9.39688C33.0621 9.42469 33.0512 9.45404 33.042 9.48339C33.0265 9.53282 33.0111 9.58226 32.9956 9.63169C32.991 9.6425 32.9879 9.65486 32.9848 9.66567L32.9725 9.71202C32.9632 9.746 32.9508 9.78617 32.9385 9.83251C32.7655 10.5107 32.3978 12.437 33.5764 14.0235C34.8353 15.7166 37.0874 15.9762 38.6151 15.6765C40.2262 15.3582 41.2472 14.3696 41.638 13.9447L41.6071 13.9741C40.6077 14.9736 39.148 15.2408 37.903 14.7758C37.7161 14.7048 37.5323 14.6183 37.3562 14.5148C37.1075 14.368 36.8743 14.1873 36.6611 13.9756C36 13.3145 35.637 12.4355 35.637 11.5024C35.6385 11.4746 35.6385 11.4437 35.6401 11.4113C35.6401 11.3109 35.6478 11.2136 35.6602 11.1162C35.6602 11.1116 35.6602 11.1054 35.6602 11.0977C35.6617 11.0807 35.6648 11.0637 35.6664 11.0467C35.6694 11.0235 35.671 11.0004 35.6756 10.9772C35.6756 10.9679 35.6772 10.9587 35.6787 10.9509C35.8378 9.72283 36.4263 8.62603 37.0426 7.95713C38.6058 6.2625 41.5237 6.05549 43.229 6.93757C43.7387 7.20173 44.403 7.69761 45.0239 8.23829C45.0285 8.24292 45.0332 8.24601 45.0378 8.25064L43.6569 6.94993V6.94529Z" fill="url(#paint10_linear_1224_1297)"/>
<path d="M57.0798 11.9058C57.0798 11.9058 57.0798 11.9181 57.0798 11.9243C57.0798 11.9397 57.0751 11.9567 57.0751 11.9753C56.9346 13.242 56.3322 14.3805 55.6988 15.0664C54.1356 16.761 51.2178 16.968 49.5125 16.086C48.9996 15.8203 48.3293 15.3182 47.7037 14.7729L49.0846 16.0752C50.2941 17.277 51.9005 17.9382 53.6074 17.9382C55.3142 17.9382 56.933 17.2708 58.144 16.0597C58.2954 15.9099 58.4962 15.6936 58.7094 15.4155C58.7094 15.4155 58.7156 15.4078 58.7279 15.3908C58.7403 15.3738 58.7588 15.3491 58.782 15.3151C58.8129 15.2734 58.8515 15.2163 58.8978 15.1483C59.1357 14.8053 59.3365 14.4392 59.5003 14.0577C59.5219 14.0098 59.542 13.9619 59.562 13.914C59.5837 13.8646 59.6037 13.8151 59.6238 13.7626C59.6362 13.7302 59.647 13.6977 59.6594 13.6637C59.664 13.6498 59.6686 13.639 59.6733 13.6267C59.6825 13.5989 59.6933 13.5695 59.7026 13.5402C59.7181 13.4907 59.735 13.4413 59.7489 13.3919C59.7536 13.381 59.7567 13.3687 59.7598 13.3594L59.7737 13.3131C59.7829 13.2791 59.7953 13.2389 59.8061 13.1926C59.9806 12.5144 60.3467 10.5881 59.1681 9.00155C57.9093 7.30846 55.6571 7.04894 54.1295 7.34863C52.5168 7.66685 51.4974 8.65552 51.105 9.08034L51.1359 9.05099C52.4998 7.68694 54.718 7.68694 56.0819 9.05099C56.743 9.71216 57.106 10.5896 57.106 11.5242C57.106 11.552 57.106 11.5829 57.1029 11.6153C57.1029 11.7142 57.0952 11.8131 57.0829 11.9104L57.0798 11.9058Z" fill="url(#paint11_linear_1224_1297)"/>
<path opacity="0.5" d="M53.5982 5.08398C52.8243 5.43774 51.8481 5.97224 50.8332 6.77553C49.7504 7.63289 48.9703 8.5196 48.4374 9.22712C48.6444 8.46553 48.8514 7.7055 49.0584 6.94391C49.3874 6.61642 49.8369 6.24103 50.4223 5.91045C51.6951 5.19366 52.92 5.08707 53.5982 5.08398Z" fill="url(#paint12_linear_1224_1297)"/>
<path opacity="0.5" d="M38.4867 5.11328C38.0527 5.33728 37.5306 5.66014 36.9946 6.12049C36.23 6.77702 35.7295 7.466 35.4128 7.98351C35.3742 7.70699 35.3433 7.41039 35.3248 7.09525C35.3094 6.83109 35.3016 6.57929 35.3032 6.34139C35.6476 6.08496 36.1388 5.77445 36.7737 5.5242C37.4441 5.26004 38.0449 5.15499 38.4867 5.11328Z" fill="url(#paint13_linear_1224_1297)"/>
<path opacity="0.5" d="M44.2298 11.4963C43.9394 11.8563 43.6366 12.2703 43.3385 12.7399C42.9508 13.3501 42.6511 13.9309 42.4148 14.4531C42.4055 14.3125 42.3901 14.1642 42.3669 14.0082C42.3329 13.7795 42.2866 13.5679 42.2341 13.3779L42.7979 12.8449L44.2282 11.4963H44.2298Z" fill="url(#paint14_linear_1224_1297)"/>
<path opacity="0.5" d="M55.6788 5.43326C55.6309 5.614 55.5877 5.81173 55.5552 6.02646C55.5321 6.18248 55.5166 6.33078 55.5074 6.47136C55.3792 6.41265 55.2185 6.31842 55.0625 6.16858C54.6763 5.79783 54.5852 5.33748 54.5605 5.15674C54.752 5.18609 54.9621 5.22625 55.183 5.28341C55.3606 5.32975 55.5274 5.37919 55.6788 5.43171V5.43326Z" fill="url(#paint15_linear_1224_1297)"/>
<path opacity="0.5" d="M50.6496 13.5355C50.6141 13.7394 50.5816 13.9526 50.5538 14.1751C50.5353 14.3265 50.5183 14.4748 50.506 14.62C50.3932 14.5396 50.2758 14.4361 50.1692 14.2986C49.712 13.7116 49.8186 12.9794 49.8526 12.7832C49.8881 12.8156 50.041 12.9609 50.075 12.9933C50.2526 13.1617 50.472 13.3671 50.6496 13.534V13.5355Z" fill="url(#paint16_linear_1224_1297)"/>
<path d="M33.5854 8.28157C33.6148 8.23523 33.6581 8.16726 33.7059 8.08229C34.1508 7.31453 34.2543 6.70434 34.3655 6.36294C34.503 5.94275 34.8335 5.39281 35.6831 4.85059C35.5595 5.15645 35.4298 5.61217 35.5101 6.13585C35.5703 6.53132 35.7063 6.67808 35.7263 6.99939C35.7464 7.31762 35.6491 7.78106 35.0961 8.37426" fill="url(#paint17_linear_1224_1297)"/>
<path d="M48.4374 9.2256C48.5764 9.01242 48.771 8.66793 48.8992 8.21068C49.012 7.81212 48.9996 7.58658 49.0753 7.15249C49.1309 6.83735 49.2375 6.37546 49.4708 5.81934C48.8977 6.21171 48.581 6.61799 48.3988 6.91768C48.2428 7.17412 48.1763 7.36413 47.9385 7.74569C47.7006 8.12571 47.4704 8.41304 47.3129 8.59533" fill="url(#paint18_linear_1224_1297)"/>
<path d="M42.4149 14.4531C42.6759 13.9371 42.7037 13.537 42.6821 13.2667C42.6605 12.9964 42.5817 12.8002 42.5632 12.3769C42.5508 12.0865 42.5724 11.8486 42.5925 11.6941C42.5338 12.1714 42.3454 13.0999 41.6364 13.9418C41.3846 14.2399 41.122 14.4639 40.8872 14.6307" fill="url(#paint19_linear_1224_1297)"/>
<path d="M55.5073 6.47099C55.0702 6.19602 54.9126 5.91023 54.8493 5.69705C54.7226 5.26451 54.9435 4.97563 54.8879 4.34381C54.857 3.99469 54.7566 3.71508 54.6747 3.53125C55.2308 3.96534 55.6077 4.38243 55.8533 4.69139C56.2364 5.17182 56.5392 5.68778 57.2265 6.21919C57.3408 6.30724 57.4397 6.37676 57.5061 6.42001" fill="url(#paint20_linear_1224_1297)"/>
<path d="M51.5221 14.3232C51.4557 14.2692 51.3491 14.1765 51.2364 14.0452C50.878 13.625 50.8317 13.245 50.583 12.6487C50.5057 12.4633 50.3775 12.1837 50.1767 11.8562C50.1752 12.0771 50.1628 12.4216 50.0995 12.8418C50.0439 13.2125 49.996 13.3315 50.0022 13.5385C50.0099 13.7949 50.0995 14.1688 50.5042 14.6214" fill="url(#paint21_linear_1224_1297)"/>
<defs>
<linearGradient id="paint0_linear_1224_1297" x1="15.5997" y1="7.1632" x2="22.9669" y2="15.8289" gradientUnits="userSpaceOnUse">
<stop stop-color="#ACB5BE"/>
<stop offset="0.03" stop-color="#AFB8C0"/>
<stop offset="0.25" stop-color="#C8CFD5"/>
<stop offset="0.48" stop-color="#DADFE4"/>
<stop offset="0.72" stop-color="#E5E9ED"/>
<stop offset="1" stop-color="#E9EDF0"/>
</linearGradient>
<linearGradient id="paint1_linear_1224_1297" x1="18.031" y1="0.460348" x2="20.5351" y2="3.4076" gradientUnits="userSpaceOnUse">
<stop stop-color="#ACB5BE"/>
<stop offset="0.03" stop-color="#AFB8C0"/>
<stop offset="0.25" stop-color="#C8CFD5"/>
<stop offset="0.48" stop-color="#DADFE4"/>
<stop offset="0.72" stop-color="#E5E9ED"/>
<stop offset="1" stop-color="#E9EDF0"/>
</linearGradient>
<linearGradient id="paint2_linear_1224_1297" x1="24.8213" y1="9.19468" x2="31.6642" y2="9.19468" gradientUnits="userSpaceOnUse">
<stop stop-color="#979BA1"/>
<stop offset="0.78" stop-color="#D6DCE5"/>
<stop offset="0.87" stop-color="#DAE0E9"/>
</linearGradient>
<linearGradient id="paint3_linear_1224_1297" x1="22.3173" y1="7.1632" x2="29.6846" y2="15.8289" gradientUnits="userSpaceOnUse">
<stop stop-color="#ACB5BE"/>
<stop offset="0.02" stop-color="#AFB8C0"/>
<stop offset="0.15" stop-color="#C8CFD5"/>
<stop offset="0.29" stop-color="#DADFE4"/>
<stop offset="0.43" stop-color="#E5E9ED"/>
<stop offset="0.6" stop-color="#E9EDF0"/>
</linearGradient>
<linearGradient id="paint4_linear_1224_1297" x1="0" y1="11.762" x2="14.1213" y2="11.762" gradientUnits="userSpaceOnUse">
<stop offset="0.1" stop-color="#ACB5BE"/>
<stop offset="0.11" stop-color="#AFB8C0"/>
<stop offset="0.2" stop-color="#C8CFD5"/>
<stop offset="0.29" stop-color="#DADFE4"/>
<stop offset="0.39" stop-color="#E5E9ED"/>
<stop offset="0.5" stop-color="#E9EDF0"/>
<stop offset="0.9" stop-color="#ACB5BE"/>
</linearGradient>
<linearGradient id="paint5_linear_1224_1297" x1="7.6909" y1="3.34455" x2="17.4418" y2="14.8154" gradientUnits="userSpaceOnUse">
<stop stop-color="#ACB5BE"/>
<stop offset="0.03" stop-color="#AFB8C0"/>
<stop offset="0.25" stop-color="#C8CFD5"/>
<stop offset="0.48" stop-color="#DADFE4"/>
<stop offset="0.72" stop-color="#E5E9ED"/>
<stop offset="1" stop-color="#E9EDF0"/>
</linearGradient>
<linearGradient id="paint6_linear_1224_1297" x1="-3.31948" y1="3.34455" x2="6.43293" y2="14.8154" gradientUnits="userSpaceOnUse">
<stop stop-color="#ACB5BE"/>
<stop offset="0.03" stop-color="#AFB8C0"/>
<stop offset="0.25" stop-color="#C8CFD5"/>
<stop offset="0.48" stop-color="#DADFE4"/>
<stop offset="0.72" stop-color="#E5E9ED"/>
<stop offset="1" stop-color="#E9EDF0"/>
</linearGradient>
<linearGradient id="paint7_linear_1224_1297" x1="39.46" y1="18.3955" x2="54.4259" y2="3.43086" gradientUnits="userSpaceOnUse">
<stop stop-color="#DAE0E9"/>
<stop offset="0.25" stop-color="#BEC4CB"/>
<stop offset="0.5" stop-color="#DAE0E9"/>
<stop offset="0.75" stop-color="#BFC4CB"/>
<stop offset="1" stop-color="#DAE0E9"/>
</linearGradient>
<linearGradient id="paint8_linear_1224_1297" x1="43.4328" y1="12.3367" x2="37.5163" y2="7.21926" gradientUnits="userSpaceOnUse">
<stop stop-color="#979BA1"/>
<stop offset="0.34" stop-color="#D8DEE7"/>
<stop offset="0.35" stop-color="#DAE0E9"/>
<stop offset="1" stop-color="#979BA1"/>
</linearGradient>
<linearGradient id="paint9_linear_1224_1297" x1="49.2824" y1="10.6577" x2="55.1989" y2="15.7735" gradientUnits="userSpaceOnUse">
<stop stop-color="#979BA1"/>
<stop offset="0.34" stop-color="#D8DEE7"/>
<stop offset="0.35" stop-color="#DAE0E9"/>
<stop offset="1" stop-color="#979BA1"/>
</linearGradient>
<linearGradient id="paint10_linear_1224_1297" x1="38.8916" y1="15.7815" x2="38.8916" y2="5.08228" gradientUnits="userSpaceOnUse">
<stop stop-color="#979BA1"/>
<stop offset="0.85" stop-color="#D8DEE7"/>
<stop offset="0.87" stop-color="#DAE0E9"/>
</linearGradient>
<linearGradient id="paint11_linear_1224_1297" x1="53.8499" y1="7.2374" x2="53.8499" y2="17.9366" gradientUnits="userSpaceOnUse">
<stop stop-color="#979BA1"/>
<stop offset="0.85" stop-color="#D8DEE7"/>
<stop offset="0.87" stop-color="#DAE0E9"/>
</linearGradient>
<linearGradient id="paint12_linear_1224_1297" x1="48.4374" y1="7.15401" x2="53.5982" y2="7.15401" gradientUnits="userSpaceOnUse">
<stop stop-color="#6D767F"/>
<stop offset="1" stop-color="#ACB5BE"/>
</linearGradient>
<linearGradient id="paint13_linear_1224_1297" x1="35.3032" y1="6.54839" x2="38.4867" y2="6.54839" gradientUnits="userSpaceOnUse">
<stop stop-color="#6D767F"/>
<stop offset="1" stop-color="#ACB5BE"/>
</linearGradient>
<linearGradient id="paint14_linear_1224_1297" x1="42.2341" y1="12.9747" x2="44.2298" y2="12.9747" gradientUnits="userSpaceOnUse">
<stop stop-color="#6D767F"/>
<stop offset="1" stop-color="#ACB5BE"/>
</linearGradient>
<linearGradient id="paint15_linear_1224_1297" x1="55.3915" y1="6.39257" x2="55.1165" y2="5.30814" gradientUnits="userSpaceOnUse">
<stop stop-color="#6D767F"/>
<stop offset="1" stop-color="#ACB5BE"/>
</linearGradient>
<linearGradient id="paint16_linear_1224_1297" x1="50.4843" y1="14.4856" x2="50.129" y2="13.0891" gradientUnits="userSpaceOnUse">
<stop stop-color="#6D767F"/>
<stop offset="1" stop-color="#ACB5BE"/>
</linearGradient>
<linearGradient id="paint17_linear_1224_1297" x1="34.525" y1="8.2333" x2="35.5077" y2="4.80001" gradientUnits="userSpaceOnUse">
<stop stop-color="#CBD0D8"/>
<stop offset="0.49" stop-color="#CED3DB"/>
<stop offset="0.94" stop-color="#D8DDE6"/>
<stop offset="1" stop-color="#DAE0E9"/>
</linearGradient>
<linearGradient id="paint18_linear_1224_1297" x1="48.1294" y1="9.01445" x2="49.8739" y2="5.98887" gradientUnits="userSpaceOnUse">
<stop offset="0.04" stop-color="#CFD5DD"/>
<stop offset="0.59" stop-color="#D2D8E0"/>
<stop offset="1" stop-color="#DAE0E9"/>
</linearGradient>
<linearGradient id="paint19_linear_1224_1297" x1="41.7012" y1="14.4577" x2="42.466" y2="11.7961" gradientUnits="userSpaceOnUse">
<stop stop-color="#C7CBD3" stop-opacity="0"/>
<stop offset="0.01" stop-color="#C7CBD3" stop-opacity="0.02"/>
<stop offset="0.02" stop-color="#C7CBD3" stop-opacity="0.07"/>
<stop offset="0.03" stop-color="#C7CBD3" stop-opacity="0.16"/>
<stop offset="0.04" stop-color="#C7CBD3" stop-opacity="0.28"/>
<stop offset="0.05" stop-color="#C7CBD3" stop-opacity="0.45"/>
<stop offset="0.06" stop-color="#C7CBD3" stop-opacity="0.64"/>
<stop offset="0.07" stop-color="#C7CBD3" stop-opacity="0.87"/>
<stop offset="0.08" stop-color="#C7CBD3"/>
<stop offset="0.33" stop-color="#CACED6"/>
<stop offset="0.57" stop-color="#D3D9E1"/>
<stop offset="0.67" stop-color="#DAE0E9"/>
</linearGradient>
<linearGradient id="paint20_linear_1224_1297" x1="56.5886" y1="6.55595" x2="54.0922" y2="3.94701" gradientUnits="userSpaceOnUse">
<stop offset="0.14" stop-color="#D6DCE6"/>
<stop offset="0.89" stop-color="#D9DFE8"/>
<stop offset="0.92" stop-color="#DAE0E9"/>
</linearGradient>
<linearGradient id="paint21_linear_1224_1297" x1="50.9877" y1="14.4839" x2="49.6328" y2="12.0061" gradientUnits="userSpaceOnUse">
<stop stop-color="#CDD2DB"/>
<stop offset="0.53" stop-color="#D0D5DE"/>
<stop offset="1" stop-color="#DAE0E9"/>
</linearGradient>
</defs>
</svg>
