<svg width="79" height="81" viewBox="0 0 79 81" fill="none" xmlns="http://www.w3.org/2000/svg">
<g filter="url(#filter0_b_188_38)">
<mask id="path-1-inside-1_188_38" fill="white">
<path fill-rule="evenodd" clip-rule="evenodd" d="M39.3696 81C60.792 81 78.1584 62.9877 78.1584 40.7684C78.1584 18.5491 60.792 0.536743 39.3696 0.536743C17.9471 0.536743 0.580811 18.5491 0.580811 40.7684C0.580811 62.9877 17.9471 81 39.3696 81ZM39.3695 60.0575C49.6406 60.0575 57.9669 51.4215 57.9669 40.7684C57.9669 30.1153 49.6406 21.4792 39.3695 21.4792C29.0985 21.4792 20.7722 30.1153 20.7722 40.7684C20.7722 51.4215 29.0985 60.0575 39.3695 60.0575Z"/>
</mask>
<path fill-rule="evenodd" clip-rule="evenodd" d="M39.3696 81C60.792 81 78.1584 62.9877 78.1584 40.7684C78.1584 18.5491 60.792 0.536743 39.3696 0.536743C17.9471 0.536743 0.580811 18.5491 0.580811 40.7684C0.580811 62.9877 17.9471 81 39.3696 81ZM39.3695 60.0575C49.6406 60.0575 57.9669 51.4215 57.9669 40.7684C57.9669 30.1153 49.6406 21.4792 39.3695 21.4792C29.0985 21.4792 20.7722 30.1153 20.7722 40.7684C20.7722 51.4215 29.0985 60.0575 39.3695 60.0575Z" fill="url(#paint0_linear_188_38)"/>
<path d="M77.6584 40.7684C77.6584 62.7289 60.4988 80.5 39.3696 80.5V81.5C61.0852 81.5 78.6584 63.2465 78.6584 40.7684H77.6584ZM39.3696 1.03674C60.4988 1.03674 77.6584 18.8078 77.6584 40.7684H78.6584C78.6584 18.2903 61.0852 0.0367432 39.3696 0.0367432V1.03674ZM1.08081 40.7684C1.08081 18.8078 18.2403 1.03674 39.3696 1.03674V0.0367432C17.6539 0.0367432 0.0808105 18.2903 0.0808105 40.7684H1.08081ZM39.3696 80.5C18.2403 80.5 1.08081 62.7289 1.08081 40.7684H0.0808105C0.0808105 63.2465 17.6539 81.5 39.3696 81.5V80.5ZM57.4669 40.7684C57.4669 51.1627 49.3474 59.5575 39.3695 59.5575V60.5575C49.9338 60.5575 58.4669 51.6802 58.4669 40.7684H57.4669ZM39.3695 21.9792C49.3474 21.9792 57.4669 30.3741 57.4669 40.7684H58.4669C58.4669 29.8565 49.9338 20.9792 39.3695 20.9792V21.9792ZM21.2722 40.7684C21.2722 30.3741 29.3917 21.9792 39.3695 21.9792V20.9792C28.8053 20.9792 20.2722 29.8565 20.2722 40.7684H21.2722ZM39.3695 59.5575C29.3917 59.5575 21.2722 51.1627 21.2722 40.7684H20.2722C20.2722 51.6802 28.8053 60.5575 39.3695 60.5575V59.5575Z" fill="url(#paint1_linear_188_38)" mask="url(#path-1-inside-1_188_38)"/>
</g>
<defs>
<filter id="filter0_b_188_38" x="-4.41919" y="-4.46326" width="87.5776" height="90.4633" filterUnits="userSpaceOnUse" color-interpolation-filters="sRGB">
<feFlood flood-opacity="0" result="BackgroundImageFix"/>
<feGaussianBlur in="BackgroundImageFix" stdDeviation="2.5"/>
<feComposite in2="SourceAlpha" operator="in" result="effect1_backgroundBlur_188_38"/>
<feBlend mode="normal" in="SourceGraphic" in2="effect1_backgroundBlur_188_38" result="shape"/>
</filter>
<linearGradient id="paint0_linear_188_38" x1="5.89434" y1="-18.7524" x2="56.1442" y2="90.6632" gradientUnits="userSpaceOnUse">
<stop stop-color="#D9D9D9" stop-opacity="0.7"/>
<stop offset="1" stop-color="white" stop-opacity="0"/>
</linearGradient>
<linearGradient id="paint1_linear_188_38" x1="39.3696" y1="0.536743" x2="39.3696" y2="81" gradientUnits="userSpaceOnUse">
<stop stop-color="white" stop-opacity="0.7"/>
<stop offset="1" stop-color="white" stop-opacity="0"/>
</linearGradient>
</defs>
</svg>
